<svg width="80" height="80" viewBox="0 0 80 80" fill="none" xmlns="http://www.w3.org/2000/svg">
<path d="M22.643 17.6278L27.4377 14.9394L27.4535 14.9383L28.5146 16.6447L28.8756 17.212C35.4699 27.6721 49.7039 31.1576 60.7817 25.0186L61.0546 24.866L63.2143 23.6586L66.0616 28.2507L66.0374 28.2643L63.6265 29.6199C52.6076 35.7881 48.9931 49.1046 55.2125 59.6191L56.8842 62.3203L52.0553 65.02L50.6262 62.7348C44.0449 52.1508 29.7035 48.6244 18.5622 54.8455L16.1236 56.2088L13.2762 51.6168L15.721 50.2499C26.8745 44.0221 30.5048 30.4947 24.0406 19.9151L23.8865 19.6672L22.6308 17.6346L22.643 17.6278Z" fill="#1F1E1E"/>
</svg>
