<svg width="152" height="152" viewBox="0 0 152 152" fill="none" xmlns="http://www.w3.org/2000/svg">
<g clip-path="url(#clip0_4_11)">
<path d="M15.8791 119.255L19.1388 119.251L19.1471 119.255L19.1471 120.414L19.1513 120.802C19.1966 127.933 25.2792 133.701 32.7877 133.729L32.973 133.729L34.4402 133.729L34.436 136.846L34.4196 136.846L32.7794 136.85C25.2915 136.854 19.2954 142.548 19.1346 149.601L19.1306 151.434L15.8502 151.434L15.8462 149.879C15.8462 142.689 9.72226 136.87 2.15607 136.866L0.499511 136.866L0.503535 133.748L2.16437 133.748C9.7388 133.752 15.809 127.956 15.8667 120.802L15.8667 120.633L15.8708 119.255L15.8791 119.255Z" fill="#1F1E1E"/>
<path d="M148.485 55.9887L148.5 67.0987L148.485 67.127H144.09L142.621 67.1411C115.587 67.2956 93.7198 88.0271 93.6159 113.619V114.25V119.251L81.7988 119.237V119.181L81.784 113.59C81.7691 88.069 60.1839 67.6323 33.4472 67.0845L26.4995 67.0708V55.8901L32.3932 55.8764C59.6495 55.8764 81.7098 35.004 81.7246 9.21593V3.56984L93.5416 3.58356V9.24422C93.5267 35.0604 115.498 55.7496 142.621 55.9462H143.259L148.485 55.9604V55.9887Z" fill="#E8FF01"/>
<path fill-rule="evenodd" clip-rule="evenodd" d="M148.5 67.0987L148.485 55.9887V55.9604L143.259 55.9462H142.621C115.498 55.7496 93.5267 35.0604 93.5416 9.24423V3.58356L81.7246 3.56984V9.21594C81.7098 35.004 59.6495 55.8764 32.3932 55.8764L26.4995 55.8901V67.0708L33.4472 67.0845C60.1839 67.6323 81.7691 88.069 81.784 113.59L81.7988 119.181V119.237L93.6159 119.251V113.619C93.7198 88.0271 115.587 67.2956 142.621 67.1411L144.09 67.127H148.485L148.5 67.0987ZM144.105 70.127H150.299L151.5 67.8357L151.485 55.9887V52.9685L143.259 52.9462L142.632 52.9462C116.989 52.7548 96.5278 33.2413 96.5416 9.24595V0.587042L78.7246 0.56636V9.21421C78.7108 33.1928 58.1508 52.8764 32.3932 52.8764H32.3862L23.4995 52.8971V70.0649L33.4132 70.0845C58.6855 70.6159 78.7702 89.8862 78.784 113.592L78.784 113.598L78.7988 119.181L78.7988 119.189L78.7988 122.233L96.6159 122.254V113.625C96.7156 89.8334 117.096 70.2871 142.638 70.1411L142.65 70.141L144.105 70.127Z" fill="black"/>
</g>
<defs>
<clipPath id="clip0_4_11">
<rect width="152" height="152" fill="white"/>
</clipPath>
</defs>
</svg>
