<svg width="368" height="368" viewBox="0 0 368 368" fill="none" xmlns="http://www.w3.org/2000/svg">
<g clip-path="url(#clip0_7_33)">
<path fill-rule="evenodd" clip-rule="evenodd" d="M517.926 166.754V166.664L495.835 166.619H493.136C378.476 165.993 285.593 100.182 285.656 18.0624V0.0561802L235.7 0.0125486V17.9725C235.637 100.003 142.378 166.397 27.1525 166.397L2.23707 166.44V202.006L31.6083 202.049C144.637 203.792 235.888 268.8 235.951 349.981L236.013 367.764V367.942L285.97 367.987V350.071C286.409 268.666 378.853 202.721 493.136 202.229L499.349 202.184H517.926L517.989 202.094L517.926 166.754ZM499.349 204.195H518.976L520.001 202.724L519.937 166.754V164.657L495.839 164.608L495.835 164.608H493.142C436.177 164.296 384.71 147.79 347.543 121.264C310.373 94.7363 287.636 58.3053 287.667 18.064V-1.95286L233.689 -2V17.9709C233.658 58.1668 210.797 94.7222 173.446 121.308C136.099 147.891 84.3963 164.386 27.1525 164.386H27.149L0.226275 164.433V204.013L31.5773 204.06C31.5822 204.06 31.587 204.06 31.5919 204.06C87.7417 204.928 138.394 221.511 174.966 247.857C211.543 274.206 233.909 310.204 233.94 349.983V349.988L234.003 367.764V369.951L287.981 370L287.981 350.082C287.981 350.081 287.981 350.08 287.981 350.079C288.197 310.192 310.951 273.902 348.029 247.444C385.105 220.989 436.37 204.484 493.145 204.24L493.151 204.24L499.349 204.195Z" fill="#E8FF01"/>
</g>
<defs>
<clipPath id="clip0_7_33">
<rect width="368" height="368" fill="white"/>
</clipPath>
</defs>
</svg>
