<svg width="792" height="532" viewBox="0 0 792 532" fill="none" xmlns="http://www.w3.org/2000/svg">
<path fill-rule="evenodd" clip-rule="evenodd" d="M2.61927 240.098L2.71495 290.688L2.71495 290.817L36.4147 290.881L40.5313 290.881C215.442 291.777 357.132 385.986 357.036 503.542L357.036 529.318L433.242 529.381L433.242 503.671C433.338 386.243 575.602 291.2 751.375 291.2L789.382 291.137L789.382 240.225L744.577 240.162C572.156 237.668 432.955 144.608 432.86 28.3957L432.764 2.93955L432.764 2.6838L356.557 2.61943L356.557 28.2668C355.887 144.799 214.868 239.201 40.5313 239.905L31.0535 239.969L2.71496 239.969L2.61927 240.098ZM31.0535 237.352L1.39834 237.352L2.72199e-05 239.235L0.0973437 290.688L0.0973435 293.429L36.4097 293.499L40.5238 293.499C127.538 293.945 206.167 317.606 262.954 355.639C319.758 393.682 354.466 445.904 354.419 503.54L354.419 531.933L435.86 532L435.86 503.673C435.907 446.102 470.804 393.702 527.884 355.576C584.946 317.462 663.934 293.817 751.375 293.817L751.379 293.817L792 293.75L792 237.611L744.615 237.545C744.61 237.545 744.604 237.545 744.598 237.545C658.827 236.301 581.442 212.53 525.563 174.755C469.666 136.968 435.524 85.367 435.477 28.3935L435.382 2.92972L435.382 0.0688392L353.94 1.60963e-05L353.94 28.2518C353.94 28.2535 353.94 28.2553 353.94 28.257C353.609 85.3864 318.875 137.406 262.212 175.347C205.566 213.278 127.246 236.937 40.5207 237.287L40.5135 237.287L31.0535 237.352Z" fill="#E8FF01"/>
</svg>
