<svg width="100" height="20" viewBox="0 0 100 20" fill="none" xmlns="http://www.w3.org/2000/svg">
<path d="M9.22246 17.4704V15.7806H9.66712C10.2995 15.7806 10.7911 15.5781 11.1419 15.1729C11.4927 14.7678 11.7447 14.1131 11.8979 13.209C12.056 12.3048 12.1622 11.1067 12.2165 9.61463L12.4833 2.2925H21.7323V17.4704H19.8944V3.92293H14.2323L13.9952 9.97036C13.9359 11.5613 13.7901 12.915 13.5579 14.0316C13.3257 15.1482 12.9181 16.0005 12.3351 16.5884C11.7521 17.1764 10.9023 17.4704 9.7857 17.4704H9.22246Z" fill="black"/>
<path d="M29.7919 17.7075C28.7642 17.7075 27.8625 17.463 27.0868 16.9738C26.3161 16.4847 25.7133 15.8004 25.2785 14.921C24.8487 14.0415 24.6338 13.0138 24.6338 11.8379C24.6338 10.6522 24.8487 9.6171 25.2785 8.73271C25.7133 7.84833 26.3161 7.16157 27.0868 6.67244C27.8625 6.18331 28.7642 5.93874 29.7919 5.93874C30.8195 5.93874 31.7188 6.18331 32.4895 6.67244C33.2652 7.16157 33.868 7.84833 34.2978 8.73271C34.7326 9.6171 34.95 10.6522 34.95 11.8379C34.95 13.0138 34.7326 14.0415 34.2978 14.921C33.868 15.8004 33.2652 16.4847 32.4895 16.9738C31.7188 17.463 30.8195 17.7075 29.7919 17.7075ZM29.7919 16.1364C30.5725 16.1364 31.2148 15.9363 31.7188 15.5361C32.2227 15.1359 32.5957 14.6097 32.8378 13.9575C33.0799 13.3053 33.201 12.5988 33.201 11.8379C33.201 11.0771 33.0799 10.3681 32.8378 9.71097C32.5957 9.05386 32.2227 8.52273 31.7188 8.11759C31.2148 7.71246 30.5725 7.50989 29.7919 7.50989C29.0112 7.50989 28.369 7.71246 27.865 8.11759C27.361 8.52273 26.988 9.05386 26.7459 9.71097C26.5038 10.3681 26.3828 11.0771 26.3828 11.8379C26.3828 12.5988 26.5038 13.3053 26.7459 13.9575C26.988 14.6097 27.361 15.1359 27.865 15.5361C28.369 15.9363 29.0112 16.1364 29.7919 16.1364Z" fill="black"/>
<path d="M44.6455 6.08696V7.7174H39.3688V17.4704H37.6198V6.08696H44.6455Z" fill="black"/>
<path d="M51.2321 17.7075C50.2044 17.7075 49.3027 17.463 48.5271 16.9738C47.7563 16.4847 47.1535 15.8004 46.7188 14.921C46.2889 14.0415 46.074 13.0138 46.074 11.8379C46.074 10.6522 46.2889 9.6171 46.7188 8.73271C47.1535 7.84833 47.7563 7.16157 48.5271 6.67244C49.3027 6.18331 50.2044 5.93874 51.2321 5.93874C52.2598 5.93874 53.159 6.18331 53.9297 6.67244C54.7054 7.16157 55.3082 7.84833 55.738 8.73271C56.1728 9.6171 56.3902 10.6522 56.3902 11.8379C56.3902 13.0138 56.1728 14.0415 55.738 14.921C55.3082 15.8004 54.7054 16.4847 53.9297 16.9738C53.159 17.463 52.2598 17.7075 51.2321 17.7075ZM51.2321 16.1364C52.0127 16.1364 52.655 15.9363 53.159 15.5361C53.6629 15.1359 54.0359 14.6097 54.278 13.9575C54.5201 13.3053 54.6412 12.5988 54.6412 11.8379C54.6412 11.0771 54.5201 10.3681 54.278 9.71097C54.0359 9.05386 53.6629 8.52273 53.159 8.11759C52.655 7.71246 52.0127 7.50989 51.2321 7.50989C50.4515 7.50989 49.8092 7.71246 49.3052 8.11759C48.8013 8.52273 48.4282 9.05386 48.1861 9.71097C47.9441 10.3681 47.823 11.0771 47.823 11.8379C47.823 12.5988 47.9441 13.3053 48.1861 13.9575C48.4282 14.6097 48.8013 15.1359 49.3052 15.5361C49.8092 15.9363 50.4515 16.1364 51.2321 16.1364Z" fill="black"/>
<path d="M57.5723 7.7174V6.08696H66.8213V7.7174H63.0861V17.4704H61.3371V7.7174H57.5723Z" fill="black"/>
<path d="M71.1215 14.8913L76.6057 6.08696H78.6215V17.4704H76.8725V8.66601L71.418 17.4704H69.3725V6.08696H71.1215V14.8913Z" fill="black"/>
<path d="M81.825 17.4704V6.08696H90.7775V17.4704H89.0285V7.7174H83.574V17.4704H81.825Z" fill="black"/>
</svg>
