<svg width="0" height="0" class="hidden">
  <symbol xmlns="http://www.w3.org/2000/svg" viewBox="0 0 20 20" id="checked">
    <path fill-rule="evenodd" clip-rule="evenodd" d="M15.6 5C15.208 5 14.858 5.15714 14.606 5.41429L8.6 11.5571L5.394 8.27143C5.142 8.01429 4.792 7.85714 4.4 7.85714C3.63 7.85714 3 8.5 3 9.28571C3 9.68571 3.154 10.0429 3.406 10.3L7.606 14.5857C7.858 14.8429 8.208 15 8.6 15C8.992 15 9.342 14.8429 9.594 14.5857L16.594 7.44286C16.846 7.18571 17 6.82857 17 6.42857C17 5.64286 16.37 5 15.6 5Z"></path>
  </symbol>
  <symbol xmlns="http://www.w3.org/2000/svg" viewBox="0 0 20 20" id="facebook">
    <path d="M18.3333 10.0208C18.3333 5.42084 14.5999 1.6875 9.99991 1.6875C5.39996 1.6875 1.66663 5.42084 1.66663 10.0208C1.66663 14.0542 4.53329 17.4125 8.33329 18.1875V12.5208H6.66663V10.0208H8.33329V7.9375C8.33329 6.32917 9.64161 5.02084 11.2499 5.02084H13.3333V7.52084H11.6666C11.2083 7.52084 10.8333 7.89584 10.8333 8.35417V10.0208H13.3333V12.5208H10.8333V18.3125C15.0416 17.8958 18.3333 14.3458 18.3333 10.0208Z"></path>
  </symbol>
  <symbol xmlns="http://www.w3.org/2000/svg" viewBox="0 0 20 20" id="instagram">
    <path d="M9.99991 1.66666C12.2641 1.66666 12.5466 1.675 13.4349 1.71666C14.3224 1.75833 14.9266 1.8975 15.4583 2.10416C16.0083 2.31583 16.4716 2.6025 16.9349 3.065C17.3587 3.48158 17.6866 3.98549 17.8958 4.54166C18.1016 5.0725 18.2416 5.6775 18.2833 6.565C18.3224 7.45333 18.3333 7.73583 18.3333 10C18.3333 12.2642 18.3249 12.5467 18.2833 13.435C18.2416 14.3225 18.1016 14.9267 17.8958 15.4584C17.6872 16.0149 17.3592 16.5189 16.9349 16.935C16.5183 17.3586 16.0144 17.6865 15.4583 17.8959C14.9274 18.1017 14.3224 18.2417 13.4349 18.2834C12.5466 18.3225 12.2641 18.3334 9.99991 18.3334C7.73579 18.3334 7.45329 18.325 6.56496 18.2834C5.67746 18.2417 5.07329 18.1017 4.54163 17.8959C3.98523 17.6871 3.48123 17.3592 3.06496 16.935C2.64113 16.5185 2.31324 16.0146 2.10413 15.4584C1.89746 14.9275 1.75829 14.3225 1.71663 13.435C1.67746 12.5467 1.66663 12.2642 1.66663 10C1.66663 7.73583 1.67496 7.45333 1.71663 6.565C1.75829 5.67666 1.89746 5.07333 2.10413 4.54166C2.31266 3.98515 2.64063 3.4811 3.06496 3.065C3.48135 2.64102 3.98532 2.3131 4.54163 2.10416C5.07329 1.8975 5.67663 1.75833 6.56496 1.71666C7.45329 1.6775 7.73579 1.66666 9.99991 1.66666ZM9.99991 5.83333C8.89489 5.83333 7.83508 6.27232 7.05368 7.05372C6.27228 7.83512 5.83329 8.89493 5.83329 10C5.83329 11.1051 6.27228 12.1649 7.05368 12.9463C7.83508 13.7277 8.89489 14.1667 9.99991 14.1667C11.105 14.1667 12.1648 13.7277 12.9462 12.9463C13.7276 12.1649 14.1666 11.1051 14.1666 10C14.1666 8.89493 13.7276 7.83512 12.9462 7.05372C12.1648 6.27232 11.105 5.83333 9.99991 5.83333ZM15.4166 5.625C15.4166 5.34873 15.3069 5.08378 15.1115 4.88843C14.9162 4.69308 14.6512 4.58333 14.3749 4.58333C14.0987 4.58333 13.8337 4.69308 13.6384 4.88843C13.443 5.08378 13.3333 5.34873 13.3333 5.625C13.3333 5.90126 13.443 6.16622 13.6384 6.36157C13.8337 6.55692 14.0987 6.66666 14.3749 6.66666C14.6512 6.66666 14.9162 6.55692 15.1115 6.36157C15.3069 6.16622 15.4166 5.90126 15.4166 5.625ZM9.99991 7.5C10.663 7.5 11.2989 7.76339 11.7677 8.23223C12.2366 8.70107 12.4999 9.33696 12.4999 10C12.4999 10.6631 12.2366 11.299 11.7677 11.7678C11.2989 12.2366 10.663 12.5 9.99991 12.5C9.33692 12.5 8.70103 12.2366 8.23219 11.7678C7.76335 11.299 7.49996 10.6631 7.49996 10C7.49996 9.33696 7.76335 8.70107 8.23219 8.23223C8.70103 7.76339 9.33692 7.5 9.99991 7.5Z"></path>
  </symbol>
  <symbol xmlns="http://www.w3.org/2000/svg" viewBox="0 0 20 20" id="telegram">
    <path d="M9.99991 1.66666C5.39996 1.66666 1.66663 5.4 1.66663 10C1.66663 14.6 5.39996 18.3334 9.99991 18.3334C14.5999 18.3334 18.3333 14.6 18.3333 10C18.3333 5.4 14.5999 1.66666 9.99991 1.66666ZM13.8666 7.33333C13.7416 8.65 13.1999 11.85 12.9249 13.325C12.8083 13.95 12.5749 14.1584 12.3583 14.1834C11.8749 14.225 11.5083 13.8667 11.0416 13.5584C10.3083 13.075 9.89161 12.775 9.18329 12.3084C8.35829 11.7667 8.89163 11.4667 9.36663 10.9834C9.49163 10.8584 11.6249 8.91666 11.6666 8.74166C11.6724 8.71516 11.6716 8.68764 11.6644 8.6615C11.6571 8.63536 11.6436 8.61139 11.6249 8.59166C11.5749 8.55 11.5083 8.56666 11.4499 8.575C11.3749 8.59166 10.2083 9.36666 7.93329 10.9C7.59996 11.125 7.29996 11.2417 7.03329 11.2334C6.73329 11.225 6.16663 11.0667 5.74163 10.925C5.21663 10.7584 4.80829 10.6667 4.84163 10.375C4.85829 10.225 5.06663 10.075 5.45829 9.91666C7.89163 8.85833 9.50831 8.15833 10.3166 7.825C12.6333 6.85833 13.1083 6.69166 13.4249 6.69166C13.4916 6.69166 13.6499 6.70833 13.7499 6.79166C13.8333 6.85833 13.8583 6.95 13.8666 7.01666C13.8583 7.06666 13.8749 7.21666 13.8666 7.33333Z"></path>
  </symbol>
  <symbol xmlns="http://www.w3.org/2000/svg" viewBox="0 0 20 20" id="arrow-double">
    <path fill-rule="evenodd" clip-rule="evenodd" d="M14.59 11.5L16 9.97773L10 3.5L4 9.97773L5.41 11.5L10 6.55533L14.59 11.5ZM14.59 16.5L16 14.9777L10 8.5L4 14.9777L5.41 16.5L10 11.5553L14.59 16.5Z"></path>
  </symbol>
  <symbol xmlns="http://www.w3.org/2000/svg" viewBox="0 0 20 20" id="arrow-type-1">
    <path d="M12.4777 16L14 14.59L9.05533 10L14 5.41L12.4777 4L6 10L12.4777 16Z"></path>
  </symbol>
</svg>