<svg width="20" height="20" viewBox="0 0 20 20" xmlns="http://www.w3.org/2000/svg"><path d="M9.99991 1.66666C5.39996 1.66666 1.66663 5.4 1.66663 10C1.66663 14.6 5.39996 18.3334 9.99991 18.3334C14.5999 18.3334 18.3333 14.6 18.3333 10C18.3333 5.4 14.5999 1.66666 9.99991 1.66666ZM13.8666 7.33333C13.7416 8.65 13.1999 11.85 12.9249 13.325C12.8083 13.95 12.5749 14.1584 12.3583 14.1834C11.8749 14.225 11.5083 13.8667 11.0416 13.5584C10.3083 13.075 9.89161 12.775 9.18329 12.3084C8.35829 11.7667 8.89163 11.4667 9.36663 10.9834C9.49163 10.8584 11.6249 8.91666 11.6666 8.74166C11.6724 8.71516 11.6716 8.68764 11.6644 8.6615C11.6571 8.63536 11.6436 8.61139 11.6249 8.59166C11.5749 8.55 11.5083 8.56666 11.4499 8.575C11.3749 8.59166 10.2083 9.36666 7.93329 10.9C7.59996 11.125 7.29996 11.2417 7.03329 11.2334C6.73329 11.225 6.16663 11.0667 5.74163 10.925C5.21663 10.7584 4.80829 10.6667 4.84163 10.375C4.85829 10.225 5.06663 10.075 5.45829 9.91666C7.89163 8.85833 9.50831 8.15833 10.3166 7.825C12.6333 6.85833 13.1083 6.69166 13.4249 6.69166C13.4916 6.69166 13.6499 6.70833 13.7499 6.79166C13.8333 6.85833 13.8583 6.95 13.8666 7.01666C13.8583 7.06666 13.8749 7.21666 13.8666 7.33333Z"/></svg>