<svg width="20" height="20" viewBox="0 0 20 20" xmlns="http://www.w3.org/2000/svg"><path d="M9.99991 1.66666C12.2641 1.66666 12.5466 1.675 13.4349 1.71666C14.3224 1.75833 14.9266 1.8975 15.4583 2.10416C16.0083 2.31583 16.4716 2.6025 16.9349 3.065C17.3587 3.48158 17.6866 3.98549 17.8958 4.54166C18.1016 5.0725 18.2416 5.6775 18.2833 6.565C18.3224 7.45333 18.3333 7.73583 18.3333 10C18.3333 12.2642 18.3249 12.5467 18.2833 13.435C18.2416 14.3225 18.1016 14.9267 17.8958 15.4584C17.6872 16.0149 17.3592 16.5189 16.9349 16.935C16.5183 17.3586 16.0144 17.6865 15.4583 17.8959C14.9274 18.1017 14.3224 18.2417 13.4349 18.2834C12.5466 18.3225 12.2641 18.3334 9.99991 18.3334C7.73579 18.3334 7.45329 18.325 6.56496 18.2834C5.67746 18.2417 5.07329 18.1017 4.54163 17.8959C3.98523 17.6871 3.48123 17.3592 3.06496 16.935C2.64113 16.5185 2.31324 16.0146 2.10413 15.4584C1.89746 14.9275 1.75829 14.3225 1.71663 13.435C1.67746 12.5467 1.66663 12.2642 1.66663 10C1.66663 7.73583 1.67496 7.45333 1.71663 6.565C1.75829 5.67666 1.89746 5.07333 2.10413 4.54166C2.31266 3.98515 2.64063 3.4811 3.06496 3.065C3.48135 2.64102 3.98532 2.3131 4.54163 2.10416C5.07329 1.8975 5.67663 1.75833 6.56496 1.71666C7.45329 1.6775 7.73579 1.66666 9.99991 1.66666ZM9.99991 5.83333C8.89489 5.83333 7.83508 6.27232 7.05368 7.05372C6.27228 7.83512 5.83329 8.89493 5.83329 10C5.83329 11.1051 6.27228 12.1649 7.05368 12.9463C7.83508 13.7277 8.89489 14.1667 9.99991 14.1667C11.105 14.1667 12.1648 13.7277 12.9462 12.9463C13.7276 12.1649 14.1666 11.1051 14.1666 10C14.1666 8.89493 13.7276 7.83512 12.9462 7.05372C12.1648 6.27232 11.105 5.83333 9.99991 5.83333ZM15.4166 5.625C15.4166 5.34873 15.3069 5.08378 15.1115 4.88843C14.9162 4.69308 14.6512 4.58333 14.3749 4.58333C14.0987 4.58333 13.8337 4.69308 13.6384 4.88843C13.443 5.08378 13.3333 5.34873 13.3333 5.625C13.3333 5.90126 13.443 6.16622 13.6384 6.36157C13.8337 6.55692 14.0987 6.66666 14.3749 6.66666C14.6512 6.66666 14.9162 6.55692 15.1115 6.36157C15.3069 6.16622 15.4166 5.90126 15.4166 5.625ZM9.99991 7.5C10.663 7.5 11.2989 7.76339 11.7677 8.23223C12.2366 8.70107 12.4999 9.33696 12.4999 10C12.4999 10.6631 12.2366 11.299 11.7677 11.7678C11.2989 12.2366 10.663 12.5 9.99991 12.5C9.33692 12.5 8.70103 12.2366 8.23219 11.7678C7.76335 11.299 7.49996 10.6631 7.49996 10C7.49996 9.33696 7.76335 8.70107 8.23219 8.23223C8.70103 7.76339 9.33692 7.5 9.99991 7.5Z"/></svg>